<svg width="162" height="36" viewBox="0 0 162 36" fill="none" xmlns="http://www.w3.org/2000/svg">
<path d="M47.104 2.8H57.364C60.028 2.8 62.38 3.34 64.42 4.42C66.46 5.476 68.044 6.964 69.172 8.884C70.3 10.78 70.864 12.952 70.864 15.4C70.864 17.848 70.3 20.032 69.172 21.952C68.044 23.848 66.46 25.336 64.42 26.416C62.38 27.472 60.028 28 57.364 28H47.104V2.8ZM57.22 25.696C59.428 25.696 61.36 25.264 63.016 24.4C64.672 23.512 65.956 22.3 66.868 20.764C67.78 19.204 68.236 17.416 68.236 15.4C68.236 13.384 67.78 11.608 66.868 10.072C65.956 8.512 64.672 7.3 63.016 6.436C61.36 5.548 59.428 5.104 57.22 5.104H49.768V25.696H57.22ZM82.9302 8.92C85.4022 8.92 87.2982 9.544 88.6182 10.792C89.9382 12.016 90.5982 13.84 90.5982 16.264V28H88.1502V25.048C87.5742 26.032 86.7222 26.8 85.5942 27.352C84.4902 27.904 83.1702 28.18 81.6342 28.18C79.5222 28.18 77.8422 27.676 76.5942 26.668C75.3462 25.66 74.7222 24.328 74.7222 22.672C74.7222 21.064 75.2982 19.768 76.4502 18.784C77.6262 17.8 79.4862 17.308 82.0302 17.308H88.0422V16.156C88.0422 14.524 87.5862 13.288 86.6742 12.448C85.7622 11.584 84.4302 11.152 82.6782 11.152C81.4782 11.152 80.3262 11.356 79.2222 11.764C78.1182 12.148 77.1702 12.688 76.3782 13.384L75.2262 11.476C76.1862 10.66 77.3382 10.036 78.6822 9.604C80.0262 9.148 81.4422 8.92 82.9302 8.92ZM82.0302 26.164C83.4702 26.164 84.7062 25.84 85.7382 25.192C86.7702 24.52 87.5382 23.56 88.0422 22.312V19.216H82.1022C78.8622 19.216 77.2422 20.344 77.2422 22.6C77.2422 23.704 77.6622 24.58 78.5022 25.228C79.3422 25.852 80.5182 26.164 82.0302 26.164ZM113.101 9.064L103.633 30.268C102.865 32.044 101.977 33.304 100.969 34.048C99.961 34.792 98.749 35.164 97.333 35.164C96.421 35.164 95.569 35.02 94.777 34.732C93.985 34.444 93.301 34.012 92.725 33.436L93.913 31.528C94.873 32.488 96.025 32.968 97.369 32.968C98.233 32.968 98.965 32.728 99.565 32.248C100.189 31.768 100.765 30.952 101.293 29.8L102.121 27.964L93.661 9.064H96.325L103.453 25.156L110.581 9.064H113.101ZM127.903 28.216C125.407 28.216 123.151 27.664 121.135 26.56C119.143 25.456 117.571 23.932 116.419 21.988C115.291 20.02 114.727 17.824 114.727 15.4C114.727 12.976 115.291 10.792 116.419 8.848C117.571 6.88 119.155 5.344 121.171 4.24C123.187 3.136 125.443 2.584 127.939 2.584C129.811 2.584 131.539 2.896 133.123 3.52C134.707 4.144 136.051 5.056 137.155 6.256L135.463 7.948C133.495 5.956 131.011 4.96 128.011 4.96C126.019 4.96 124.207 5.416 122.575 6.328C120.943 7.24 119.659 8.488 118.723 10.072C117.811 11.656 117.355 13.432 117.355 15.4C117.355 17.368 117.811 19.144 118.723 20.728C119.659 22.312 120.943 23.56 122.575 24.472C124.207 25.384 126.019 25.84 128.011 25.84C131.035 25.84 133.519 24.832 135.463 22.816L137.155 24.508C136.051 25.708 134.695 26.632 133.087 27.28C131.503 27.904 129.775 28.216 127.903 28.216Z" fill="#E5E5E5"/>
<path d="M3 30L15 16.1538L23 25.3846L40 3.27692L37.18 0L23 18.4615L15 9.23077L0 26.5385L3 30Z" fill="#49BEB7"/>
</svg>
