<?xml version="1.0" standalone="no"?>
<!DOCTYPE svg PUBLIC "-//W3C//DTD SVG 20010904//EN"
 "http://www.w3.org/TR/2001/REC-SVG-20010904/DTD/svg10.dtd">
<svg version="1.0" xmlns="http://www.w3.org/2000/svg"
 width="1280.000000pt" height="1280.000000pt" viewBox="0 0 1280.000000 1280.000000"
 preserveAspectRatio="xMidYMid meet">
<metadata>
Created by potrace 1.11, written by Peter Selinger 2001-2013
</metadata>
<g transform="translate(0.000000,1280.000000) scale(0.100000,-0.100000)"
fill="#000000" stroke="none">
<path d="M11810 11089 c-47 -61 -96 -127 -110 -148 -14 -20 -33 -42 -42 -49
-10 -7 -18 -19 -18 -27 0 -7 -3 -15 -8 -17 -4 -1 -26 -28 -49 -58 -24 -30 -46
-59 -51 -65 -4 -5 -37 -48 -72 -95 -35 -47 -69 -90 -75 -96 -5 -6 -17 -22 -25
-34 -14 -21 -24 -33 -62 -79 -10 -12 -18 -25 -18 -30 0 -5 -4 -11 -9 -13 -5
-1 -46 -52 -91 -113 -46 -60 -87 -111 -92 -113 -4 -2 -8 -10 -8 -18 0 -8 -4
-14 -9 -14 -5 0 -19 -15 -30 -33 -11 -18 -30 -44 -42 -57 -11 -14 -35 -44 -52
-67 -17 -24 -34 -43 -39 -43 -4 0 -7 -3 -5 -8 1 -4 -4 -14 -11 -22 -7 -8 -26
-33 -42 -55 -17 -22 -44 -56 -60 -75 -28 -35 -63 -81 -96 -130 -10 -14 -22
-29 -28 -35 -6 -5 -38 -46 -71 -90 -33 -44 -65 -87 -72 -95 -82 -102 -133
-171 -133 -179 0 -5 -4 -11 -9 -13 -5 -1 -59 -68 -119 -148 -61 -80 -119 -155
-129 -168 -57 -72 -53 -68 -113 -147 -25 -33 -53 -69 -62 -80 -9 -11 -66 -85
-127 -165 -61 -80 -114 -149 -118 -155 -5 -5 -24 -30 -43 -55 -19 -25 -37 -47
-40 -50 -3 -3 -25 -32 -50 -65 -24 -33 -48 -64 -52 -70 -5 -5 -27 -35 -51 -65
-23 -30 -45 -56 -49 -58 -5 -2 -8 -8 -8 -14 0 -5 -6 -15 -12 -22 -7 -7 -22
-25 -33 -41 -11 -15 -27 -35 -35 -45 -33 -36 -110 -141 -110 -149 0 -5 -3 -11
-7 -13 -8 -3 -30 -30 -80 -94 -12 -16 -45 -58 -73 -94 -61 -79 -58 -76 -94
-125 -16 -22 -36 -47 -43 -55 -8 -8 -48 -60 -89 -115 -41 -55 -85 -112 -97
-127 -26 -32 -38 -47 -122 -158 -36 -47 -74 -96 -85 -108 -11 -13 -20 -28 -20
-33 0 -5 -4 -9 -8 -9 -4 0 -16 -14 -26 -30 -9 -17 -28 -41 -42 -55 -13 -13
-24 -29 -24 -35 0 -5 -4 -10 -10 -10 -5 0 -10 -6 -10 -14 0 -8 -4 -16 -9 -18
-5 -1 -39 -43 -77 -93 -37 -49 -72 -92 -76 -93 -4 -2 -6 -8 -2 -13 3 -5 1 -9
-3 -9 -5 0 -27 -24 -48 -52 -38 -51 -45 -59 -72 -92 -7 -8 -13 -19 -13 -25 0
-5 -3 -11 -8 -13 -4 -1 -23 -23 -42 -48 -19 -25 -37 -47 -40 -50 -3 -3 -17
-21 -30 -40 -14 -19 -35 -46 -47 -60 -13 -14 -23 -28 -23 -32 0 -4 -11 -18
-25 -32 -14 -14 -25 -29 -25 -35 0 -5 -3 -11 -8 -13 -4 -1 -33 -37 -64 -78
-32 -41 -70 -90 -85 -109 -16 -19 -30 -38 -32 -44 -2 -5 -17 -23 -32 -40 -16
-16 -29 -33 -29 -37 0 -4 -10 -18 -21 -31 -12 -13 -47 -58 -77 -99 -31 -41
-58 -77 -61 -80 -4 -3 -19 -23 -36 -45 -52 -71 -53 -72 -83 -38 -15 17 -56 63
-92 103 -36 40 -66 76 -68 81 -2 5 -18 23 -35 41 -42 44 -105 116 -140 161
-16 20 -45 54 -65 75 -20 22 -46 50 -57 63 -30 36 -269 312 -280 325 -16 18
-111 127 -135 154 -44 52 -106 124 -132 154 -44 49 -59 67 -123 141 -33 39
-62 72 -65 75 -6 6 -103 118 -141 164 -13 16 -35 41 -49 56 -14 15 -41 46 -60
70 -19 23 -44 52 -55 64 -11 11 -49 55 -85 96 -35 41 -69 80 -74 86 -27 28
-122 139 -136 158 -7 11 -30 37 -50 57 -19 20 -53 58 -75 85 -22 26 -52 61
-67 78 -15 17 -36 42 -48 56 -12 14 -45 52 -73 84 -29 33 -87 100 -130 150
-43 50 -91 105 -105 121 -15 17 -49 57 -77 89 -27 32 -65 74 -83 94 l-33 36
-32 -36 c-35 -40 -104 -119 -137 -158 -49 -57 -117 -135 -143 -162 -15 -16
-27 -31 -27 -33 0 -3 -8 -13 -17 -23 -32 -34 -145 -163 -201 -231 -21 -24 -46
-54 -58 -65 -11 -12 -45 -50 -75 -86 -30 -35 -63 -74 -74 -86 -11 -12 -39 -44
-62 -70 -57 -67 -71 -83 -125 -145 -25 -30 -56 -65 -67 -79 -12 -14 -42 -47
-66 -75 -24 -27 -52 -60 -62 -71 -78 -91 -142 -165 -327 -378 -28 -33 -63 -72
-78 -88 -16 -15 -28 -30 -28 -33 0 -3 -8 -13 -17 -23 -10 -10 -39 -43 -65 -73
-26 -29 -56 -65 -68 -79 -12 -14 -43 -49 -68 -79 -26 -30 -65 -74 -87 -99 -43
-49 -48 -54 -115 -133 -25 -29 -55 -64 -67 -76 -11 -13 -36 -42 -54 -65 -18
-22 -49 -57 -69 -78 -19 -21 -44 -49 -54 -62 -41 -50 -122 -144 -132 -153 -6
-5 -53 -59 -105 -120 -51 -60 -98 -115 -104 -121 -5 -6 -32 -38 -60 -70 -27
-32 -59 -68 -70 -79 -11 -12 -36 -41 -56 -66 -20 -24 -47 -56 -60 -70 -13 -14
-42 -47 -64 -74 -22 -26 -45 -53 -52 -60 -7 -7 -44 -50 -83 -95 -39 -45 -76
-88 -83 -95 -7 -7 -30 -34 -52 -60 -22 -27 -45 -53 -50 -59 -6 -6 -56 -63
-110 -126 -55 -63 -104 -120 -110 -126 -5 -7 -30 -35 -55 -64 -44 -52 -100
-116 -130 -149 -8 -9 -37 -43 -65 -76 -27 -32 -57 -66 -65 -75 -8 -9 -37 -43
-65 -75 -27 -32 -55 -63 -60 -69 -6 -6 -33 -38 -60 -71 -28 -33 -53 -62 -56
-65 -3 -3 -39 -43 -78 -89 -40 -46 -77 -89 -84 -96 -7 -6 -28 -31 -47 -55 -19
-24 -46 -55 -60 -69 -14 -15 -49 -56 -79 -91 -61 -72 -92 -108 -133 -151 -16
-15 -28 -31 -28 -34 0 -3 -8 -13 -17 -23 -34 -35 -144 -162 -214 -246 -13 -16
-35 -39 -47 -51 l-24 -22 58 -69 c32 -38 60 -71 63 -74 4 -3 47 -52 96 -110
50 -58 95 -110 101 -116 5 -6 30 -35 55 -64 24 -29 55 -65 69 -79 14 -15 45
-51 70 -81 24 -30 59 -70 77 -88 18 -18 33 -36 33 -40 0 -4 8 -14 17 -23 10
-8 32 -31 48 -51 60 -71 131 -152 155 -179 14 -15 43 -50 65 -77 22 -28 45
-51 51 -52 13 0 40 28 133 139 20 24 45 53 56 66 11 12 38 43 60 69 22 25 51
59 65 74 14 15 50 57 80 92 30 35 64 74 75 86 11 12 27 31 35 41 32 37 146
169 171 198 15 17 80 91 144 165 64 74 121 137 126 138 5 2 9 9 9 16 0 7 12
24 27 37 16 14 46 47 68 73 22 27 45 54 50 60 6 6 39 45 74 86 36 41 74 85 85
96 12 12 32 36 46 53 14 18 42 51 63 74 20 22 37 45 37 50 0 4 5 5 10 2 6 -3
10 -1 10 5 0 6 6 17 13 24 6 7 32 37 57 66 25 29 50 58 56 64 5 6 39 45 75 86
35 41 71 82 79 91 8 8 35 40 60 69 25 30 57 67 72 82 16 16 28 31 28 34 0 3
10 15 23 28 12 13 42 47 67 76 25 30 55 64 68 77 12 13 45 52 73 85 28 34 56
67 62 73 7 7 31 34 54 61 23 27 52 61 65 75 13 15 43 50 67 79 25 29 61 70 82
91 21 21 35 39 33 39 -3 0 1 6 8 13 7 8 36 40 63 71 28 32 59 68 70 81 11 12
31 35 45 51 117 137 165 191 179 205 9 10 32 36 51 59 19 24 45 54 58 69 13
14 40 46 60 71 20 24 51 58 67 76 17 17 46 51 67 75 20 24 44 54 55 65 10 12
38 45 63 74 25 29 54 62 65 75 11 12 36 40 55 62 19 22 58 67 87 99 28 33 62
73 75 89 13 16 37 44 53 61 17 17 46 51 67 75 20 24 46 55 58 69 12 14 43 49
68 79 78 90 71 86 101 50 14 -18 36 -43 49 -56 13 -13 20 -23 16 -23 -3 0 3
-8 14 -17 11 -10 55 -58 97 -108 154 -179 181 -209 212 -242 17 -18 33 -37 35
-42 2 -7 64 -78 153 -177 11 -12 40 -46 65 -75 25 -29 56 -66 70 -82 14 -15
36 -41 50 -56 14 -16 45 -52 69 -81 25 -29 50 -58 55 -64 6 -6 67 -76 136
-156 68 -80 129 -150 135 -156 5 -6 30 -35 55 -64 25 -29 57 -66 72 -82 15
-16 42 -47 60 -70 18 -22 44 -53 58 -68 14 -15 50 -56 80 -90 30 -35 60 -69
68 -76 7 -8 11 -14 9 -14 -3 0 14 -19 37 -43 22 -24 57 -63 76 -87 19 -24 52
-61 73 -82 20 -22 37 -42 37 -45 0 -3 13 -20 29 -37 16 -17 43 -46 60 -64 17
-18 31 -35 31 -38 0 -3 12 -17 26 -32 40 -43 64 -70 164 -187 52 -60 99 -115
105 -121 42 -46 124 -141 140 -162 11 -14 31 -37 44 -51 40 -45 112 -129 126
-147 18 -25 38 -13 86 53 23 32 45 60 48 63 3 3 26 32 51 65 25 33 51 64 57
68 7 4 13 13 13 20 0 7 10 23 23 37 12 14 72 90 132 169 61 79 119 153 130
165 12 11 21 25 22 29 1 5 13 23 28 40 15 18 41 51 58 75 17 23 34 42 39 42 4
0 8 5 8 11 0 7 15 30 33 53 19 23 80 101 136 174 56 74 106 139 111 145 6 7
24 30 40 52 16 22 35 46 42 54 12 15 138 179 246 321 31 41 59 77 62 80 3 3
18 23 35 45 16 22 32 42 35 45 3 3 17 21 30 40 13 19 27 37 30 40 5 4 73 92
112 145 4 6 20 26 35 45 16 19 42 53 58 75 16 22 33 45 37 50 24 30 176 227
193 251 11 15 45 59 75 98 31 39 91 116 133 171 42 55 80 105 85 110 4 6 24
33 45 60 20 28 43 57 50 65 7 8 35 44 62 80 27 36 55 72 62 80 13 15 117 152
151 199 9 13 27 35 40 50 13 14 31 38 40 53 9 16 20 28 24 28 4 0 8 6 8 14 0
8 4 16 9 18 8 3 61 68 116 144 11 15 40 53 65 84 25 31 54 69 65 84 11 16 25
33 30 40 6 6 26 32 45 59 19 26 44 58 55 71 23 27 34 41 113 146 31 41 59 77
62 80 3 3 32 41 65 84 33 44 78 103 100 131 22 29 49 65 60 80 11 15 25 32 30
39 6 6 32 40 60 76 27 36 53 67 57 68 5 2 8 10 8 18 0 8 3 14 8 14 4 0 18 17
32 37 14 20 35 47 48 59 12 13 22 28 22 34 0 5 4 10 9 10 5 0 12 8 15 18 3 9
16 28 29 42 12 14 58 72 102 130 44 58 82 107 85 110 3 3 25 32 50 65 24 33
50 66 58 74 7 8 21 26 30 40 19 30 38 53 70 89 12 14 22 28 22 31 0 3 13 20
28 38 15 17 36 44 47 59 25 34 169 221 192 250 10 12 27 34 38 50 11 15 39 51
63 80 23 29 42 56 42 59 0 4 6 12 13 19 6 7 23 27 37 45 14 18 30 38 35 44 6
7 69 89 140 182 71 94 140 184 154 200 14 17 35 44 46 59 11 16 27 37 36 46 8
9 18 24 22 33 3 9 11 17 17 17 5 0 10 6 10 13 0 7 8 20 18 28 9 9 24 26 32 39
8 12 21 28 28 36 6 7 12 15 12 18 0 3 8 14 18 24 31 34 52 62 52 71 0 5 7 11
15 15 8 3 15 12 15 21 0 8 4 15 8 15 5 0 21 18 38 41 16 22 42 56 58 75 l29
35 -24 27 c-13 15 -31 34 -39 43 -8 9 -35 41 -60 70 -25 30 -57 66 -72 81 -14
16 -23 28 -20 28 4 0 2 4 -4 8 -6 4 -39 41 -74 82 -35 41 -67 77 -70 80 -3 3
-30 34 -60 70 -30 36 -59 70 -65 76 -5 6 -29 33 -52 60 -23 27 -56 65 -73 84
-18 19 -46 52 -63 74 -18 21 -48 57 -68 80 -20 22 -47 54 -60 69 -13 15 -42
48 -64 72 l-40 45 -85 -111z"/>
</g>
</svg>
